<?xml version="1.0" encoding="utf-8"?>
<!-- Generator: Adobe Illustrator 27.5.0, SVG Export Plug-In . SVG Version: 6.00 Build 0)  -->
<svg version="1.1" xmlns="http://www.w3.org/2000/svg" xmlns:xlink="http://www.w3.org/1999/xlink" x="0px" y="0px"
	 viewBox="0 0 700 500" style="enable-background:new 0 0 700 500;" xml:space="preserve">
<g id="BACKGROUND">
	<g>
		<rect style="fill:#FFFFFF;" width="700" height="500"/>
		<g>
			<g>
				<g>
					<g style="opacity:0.68;">
						<g style="opacity:0.47;">
							<path style="fill:#D2D5F9;" d="M652.004,229.928c-2.948-30.669-17.129-61.389-41.69-83.344
								c-38.271-34.209-96.163-42.831-146.9-34.923c-21.252,3.312-42.327,9.18-64.087,7.333
								c-31.737-2.694-59.694-21.158-88.589-34.694c-39.334-18.425-84.422-28.341-126.239-20.324
								c-47.412,9.09-86.286,43.428-90.925,88.986c-2.102,20.643,19.255,57.011,12.515,76.576
								C99.253,249.381,49.34,310.16,50.571,356.39c1.226,46.058,12.721,60.383,28.966,83.79h12.985h489.324h28.162
								c10.115-23.718,18.04-42.688,6.197-73.834c-9.463-24.885,16.246-45.38,26.192-68.545
								C651.249,277.185,654.163,252.392,652.004,229.928z"/>
						</g>
					</g>
					<g style="opacity:0.41;">
						<path style="fill:#D2D5F9;" d="M49.379,239.121c-4.729-9.695-1.054-21.567,8.208-26.517c9.263-4.95,27.041-4.543,31.77,5.152
							c4.729,9.695-9.528,17.973-15.353,26.99C65.879,257.323,54.108,248.816,49.379,239.121z"/>
					</g>
					<g style="opacity:0.41;">
						<path style="fill:#D2D5F9;" d="M647.247,336.547c5.23,4.082,6.308,11.829,2.408,17.303c-3.9,5.474-14.011,10.405-19.241,6.323
							c-5.23-4.082,0.599-12.878,1.487-19.643C633.14,331.095,642.017,332.465,647.247,336.547z"/>
					</g>
					<g style="opacity:0.41;">
						<path style="fill:#D2D5F9;" d="M391.1,76.657c4.888-7.795,14.724-10.056,21.969-5.051s14.19,18.858,9.302,26.652
							c-4.888,7.794-16.502,0.373-25.207-0.243C385.023,97.154,386.212,84.451,391.1,76.657z"/>
					</g>
				</g>
				<g style="opacity:0.43;">
					<g>
						<path style="fill:#D2D5F9;" d="M593.484,413.046c5.169-26.899-3.117-49.844-5.184-76.22
							c-1.956-24.971,6.517-45.972,11.218-69.756c4.184-21.167,2.79-45.142-2.462-65.945c-7.17-28.402-23.684-54.702-47.475-70.735
							c-37.072-24.982-86.512-22.041-127.462-4.856c-17.152,7.198-33.764,16.775-52.133,19.198
							c-26.791,3.533-52.867-8.554-78.965-15.805c-35.526-9.871-74.525-10.603-108.044,4.976
							c-38.005,17.664-65.028,57.539-61.87,101.457c1.43,19.9,8.749,39.539,6.158,59.308c-2.628,20.05-14.008,36.824-20.032,55.707
							c-8.222,25.774-8.971,63.654,4.249,89.807h473.103C588.666,431.629,591.673,422.471,593.484,413.046z"/>
					</g>
				</g>
				<g style="opacity:0.75;">
					<g>
						<path style="fill:#D2D5F9;" d="M542.165,418.803c4.072-21.192-2.456-39.269-4.084-60.048
							c-1.541-19.673,5.134-36.218,8.838-54.955c3.296-16.676,2.198-35.564-1.94-51.953c-5.649-22.376-18.659-43.096-37.402-55.727
							c-29.206-19.682-68.156-17.364-100.417-3.826c-13.513,5.671-26.6,13.216-41.072,15.124
							c-21.107,2.783-41.65-6.739-62.211-12.452c-27.988-7.776-58.712-8.353-85.119,3.92c-29.941,13.916-51.23,45.33-48.743,79.93
							c1.127,15.678,6.893,31.15,4.852,46.724c-2.07,15.796-11.036,29.011-15.781,43.887c-6.478,20.306-7.068,50.148,3.347,70.752
							h372.721C538.369,433.443,540.738,426.229,542.165,418.803z"/>
					</g>
				</g>
				<g>
					<g>
						<g style="opacity:0.47;">
							<path style="fill:#D2D5F9;" d="M505.511,328.771c-1.51-16.251-8.775-32.529-21.358-44.163
								c-19.607-18.127-49.266-22.696-75.26-18.505c-10.888,1.755-21.685,4.864-32.833,3.886
								c-16.26-1.427-30.582-11.212-45.386-18.384c-20.152-9.763-43.251-15.018-64.675-10.769
								c-24.29,4.817-44.206,23.012-46.582,47.152c-1.077,10.939,9.865,30.21,6.412,40.576
								c-3.503,10.515-29.074,42.72-28.443,67.217c0.628,24.405,6.517,31.996,14.84,44.399h6.652h250.69h14.428
								c5.182-12.568,9.242-22.62,3.175-39.124c-4.848-13.186,8.323-24.046,13.419-36.321
								C505.124,353.811,506.617,340.674,505.511,328.771z"/>
						</g>
					</g>
				</g>
			</g>
		</g>
	</g>
</g>
<g id="OBJECTS">
	<g>
		<g>
			<g>
				<g>
					<defs>
						<rect id="SVGID_1_" x="244.181" y="312.173" width="342.48" height="127.999"/>
					</defs>
					<clipPath id="SVGID_00000127015312587452510590000013389006616876761758_">
						<use xlink:href="#SVGID_1_"  style="overflow:visible;"/>
					</clipPath>
					
						<rect x="244.181" y="312.173" style="clip-path:url(#SVGID_00000127015312587452510590000013389006616876761758_);fill:#F4AB63;" width="342.48" height="127.999"/>
					<g style="opacity:0.38;clip-path:url(#SVGID_00000127015312587452510590000013389006616876761758_);">
						<path style="fill:#CE5F0C;" d="M267.659,401.367h46.923c0.882,0,1.596-0.715,1.596-1.597v-42.532
							c0-5.326-4.317-9.643-9.643-9.643h-31.333c-5.326,0-9.643,4.317-9.643,9.643v42.029
							C265.56,400.427,266.5,401.367,267.659,401.367z"/>
					</g>
					<g style="opacity:0.38;clip-path:url(#SVGID_00000127015312587452510590000013389006616876761758_);">
						<path style="fill:#CE5F0C;" d="M562.119,401.367h-46.923c-0.882,0-1.596-0.715-1.596-1.597v-42.532
							c0-5.326,4.317-9.643,9.643-9.643h31.333c5.326,0,9.643,4.317,9.643,9.643v42.029
							C564.218,400.427,563.279,401.367,562.119,401.367z"/>
					</g>
					<g style="clip-path:url(#SVGID_00000127015312587452510590000013389006616876761758_);">
						<g>
							<path style="fill:#FFFFFF;" d="M273.323,394.583h44.966c0.882,0,1.597-0.715,1.597-1.596v-35.748
								c0-5.326-4.317-9.643-9.643-9.643h-29.376c-5.326,0-9.643,4.317-9.643,9.643v35.246
								C271.224,393.644,272.164,394.583,273.323,394.583z"/>
						</g>
						<path style="fill:#F4AB63;" d="M294.807,394.723c-0.551,0-0.998-0.445-1-0.997l-0.142-45.489
							c-0.002-0.552,0.444-1.001,0.997-1.003c0.001,0,0.002,0,0.003,0c0.551,0,0.998,0.445,1,0.997l0.142,45.489
							c0.002,0.552-0.444,1.001-0.997,1.003C294.809,394.723,294.808,394.723,294.807,394.723z"/>
						<path style="fill:#F4AB63;" d="M307.549,372.439h-37.172c-0.552,0-1-0.447-1-1c0-0.553,0.448-1,1-1h37.172
							c0.552,0,1,0.447,1,1C308.549,371.991,308.101,372.439,307.549,372.439z"/>
					</g>
					<g style="clip-path:url(#SVGID_00000127015312587452510590000013389006616876761758_);">
						<g>
							<path style="fill:#FFFFFF;" d="M556.239,394.583h-44.966c-0.882,0-1.596-0.715-1.596-1.596v-35.748
								c0-5.326,4.317-9.643,9.643-9.643h29.377c5.326,0,9.643,4.317,9.643,9.643v35.246
								C558.338,393.644,557.398,394.583,556.239,394.583z"/>
						</g>
						<path style="fill:#F4AB63;" d="M534.756,394.723c-0.001,0-0.002,0-0.003,0c-0.553-0.002-0.999-0.451-0.997-1.003l0.143-45.489
							c0.002-0.552,0.449-0.997,1-0.997c0.001,0,0.002,0,0.003,0c0.553,0.002,0.999,0.451,0.997,1.003l-0.143,45.489
							C535.754,394.277,535.307,394.723,534.756,394.723z"/>
						<path style="fill:#F4AB63;" d="M557.165,372.439h-35.151c-0.553,0-1-0.447-1-1c0-0.553,0.447-1,1-1h35.151
							c0.553,0,1,0.447,1,1C558.165,371.991,557.718,372.439,557.165,372.439z"/>
					</g>
					
						<rect x="307.866" y="312.173" style="opacity:0.44;clip-path:url(#SVGID_00000127015312587452510590000013389006616876761758_);fill:#CE5F0C;" width="214.005" height="127.999"/>
				</g>
				<g>
					<defs>
						<path id="SVGID_00000137123132518632398930000012388080828601822848_" d="M573.491,264.304H253.905l-26.913,72.576h367.069
							c4.154,0,6.99-4.201,5.437-8.053L573.491,264.304z"/>
					</defs>
					<use xlink:href="#SVGID_00000137123132518632398930000012388080828601822848_"  style="overflow:visible;fill:#E58D00;"/>
					<clipPath id="SVGID_00000146460724344631425250000016631901497046460320_">
						<use xlink:href="#SVGID_00000137123132518632398930000012388080828601822848_"  style="overflow:visible;"/>
					</clipPath>
				</g>
				<g style="opacity:0.22;">
					<defs>
						<polygon id="SVGID_00000154386492405857039760000000488109340979122871_" style="opacity:0.22;" points="557.364,264.304 
							279.729,264.304 256.349,325.54 582.778,325.54 						"/>
					</defs>
					<use xlink:href="#SVGID_00000154386492405857039760000000488109340979122871_"  style="overflow:visible;fill:#CE5F0C;"/>
					<clipPath id="SVGID_00000049203124963496795110000009023930373407773627_">
						<use xlink:href="#SVGID_00000154386492405857039760000000488109340979122871_"  style="overflow:visible;"/>
					</clipPath>
				</g>
				<path style="opacity:0.4;fill:#CE5F0C;" d="M410.105,201.486l-113.74,89.42c-1.402,1.102-1.933,2.982-1.315,4.655l5.43,14.696
					c0.949,2.567,4.094,3.507,6.295,1.882l107.999-79.72c1.455-1.074,3.44-1.071,4.891,0.007l109.239,81.155
					c2.511,1.865,6.102,0.353,6.523-2.746l2.141-15.783c0.193-1.426-0.373-2.849-1.493-3.752l-111.315-89.725
					C420.491,198.135,414.414,198.098,410.105,201.486z"/>
				<g>
					<polygon style="fill:#FFD19E;" points="492.759,252.691 457.322,229.691 457.322,195.557 492.759,195.557 					"/>
					<rect x="457.322" y="204.122" style="fill:#F4B74C;" width="35.437" height="5.848"/>
					<path style="fill:#FF9D0E;" d="M494.103,204.122h-38.126c-0.239,0-0.434-0.194-0.434-0.434v-9.159
						c0-0.239,0.194-0.434,0.434-0.434h38.126c0.24,0,0.434,0.194,0.434,0.434v9.159
						C494.537,203.928,494.343,204.122,494.103,204.122z"/>
					<g>
						<path style="fill:#F99108;" d="M411.024,199.807l-112.683,82.703c-0.431,0.316-0.594,0.883-0.397,1.379l7.165,18.103
							c0.278,0.702,1.137,0.963,1.759,0.535l108.559-74.81c0.402-0.277,0.934-0.277,1.336,0.002l110.546,76.671
							c0.717,0.497,1.706,0.067,1.832-0.796l2.885-19.858c0.062-0.425-0.113-0.849-0.456-1.107l-109.978-82.758
							C418.468,197.521,414.175,197.495,411.024,199.807z"/>
						<path style="fill:#F4B74C;" d="M410.244,219.696l-93.742,70.444v133.245v16.787h196.733v-16.787V290.14l-91.341-70.374
							C418.468,217.127,413.701,217.098,410.244,219.696z"/>
						<path style="fill:#FFD19E;" d="M409.68,235.121l-93.178,65.247V424.53v15.642h196.733V424.53V300.368l-90.777-65.172
							C418.646,232.46,413.523,232.43,409.68,235.121z"/>
						<g>
							<path style="fill:#F4AB63;" d="M372.173,401.367h-38.348v-87.241c0-2.318,1.879-4.197,4.197-4.197h29.954
								c2.318,0,4.197,1.879,4.197,4.197V401.367z"/>
						</g>
						<g>
							<path style="fill:#F4AB63;" d="M368.534,401.367h-31.486c-1.78,0-3.223-1.443-3.223-3.222v-84.281
								c0-2.173,1.762-3.935,3.935-3.935h30.478c2.173,0,3.935,1.762,3.935,3.935v83.864
								C372.173,399.738,370.544,401.367,368.534,401.367z"/>
						</g>
						<g>
							<path style="fill:#F4AB63;" d="M490.531,401.367h-30.554c-2.092,0-3.788-1.696-3.788-3.788v-83.715
								c0-2.173,1.762-3.935,3.935-3.935h30.478c2.173,0,3.935,1.762,3.935,3.935v83.498
								C494.537,399.574,492.744,401.367,490.531,401.367z"/>
						</g>
					</g>
					<g>
						<path style="fill:#E58D00;" d="M418.387,325.54h-6.184c-14.476,0-26.211,11.735-26.211,26.211v88.299h58.606v-88.299
							C444.598,337.275,432.863,325.54,418.387,325.54z"/>
						<path style="fill:#FFFFFF;" d="M439.085,431.606h-47.581c-0.276,0-0.5-0.224-0.5-0.5v-69.179
							c0-13.393,10.897-24.29,24.291-24.29c13.394,0,24.29,10.897,24.29,24.29v69.179
							C439.585,431.383,439.361,431.606,439.085,431.606z M392.004,430.606h46.581v-68.679c0-12.842-10.448-23.29-23.29-23.29
							c-12.843,0-23.291,10.448-23.291,23.29V430.606z"/>
						<path style="fill:#FFFFFF;" d="M432.313,389.884c-2.229,0-4.043-1.814-4.043-4.044c0-2.229,1.814-4.044,4.043-4.044
							s4.044,1.815,4.044,4.044C436.356,388.069,434.542,389.884,432.313,389.884z M432.313,382.796
							c-1.678,0-3.043,1.365-3.043,3.044c0,1.679,1.365,3.044,3.043,3.044c1.679,0,3.044-1.365,3.044-3.044
							C435.356,384.161,433.991,382.796,432.313,382.796z"/>
					</g>
					<g>
						<g>
							<g>
								<path style="fill:#FFFFFF;" d="M371.769,391.409h-30.21c-1.703,0-3.083-1.38-3.083-3.083v-74.462
									c0-2.173,1.762-3.935,3.935-3.935h28.397c2.173,0,3.935,1.762,3.935,3.935v74.571
									C374.744,390.078,373.412,391.409,371.769,391.409z"/>
							</g>
							<path style="fill:#FFD19E;" d="M356.304,390.384c-0.552,0-1-0.447-1-1v-78.768c0-0.553,0.448-1,1-1s1,0.447,1,1v78.768
								C357.304,389.936,356.856,390.384,356.304,390.384z"/>
							<path style="fill:#FFD19E;" d="M375.592,334.564h-37.172c-0.552,0-1-0.447-1-1c0-0.553,0.448-1,1-1h37.172
								c0.552,0,1,0.447,1,1C376.592,334.116,376.144,334.564,375.592,334.564z"/>
						</g>
						<g>
							<g>
								<path style="fill:#FFFFFF;" d="M486.486,391.409h-28.724c-1.966,0-3.56-1.594-3.56-3.56v-73.985
									c0-2.173,1.762-3.935,3.935-3.935h28.397c2.173,0,3.935,1.762,3.935,3.935v73.562
									C490.469,389.626,488.686,391.409,486.486,391.409z"/>
							</g>
							<path style="fill:#FFD19E;" d="M472.336,390.384c-0.549,0-0.996-0.442-1-0.992l-0.61-78.366
								c-0.004-0.553,0.439-1.004,0.992-1.008c0.512-0.031,1.004,0.439,1.008,0.992l0.61,78.366c0.004,0.553-0.44,1.004-0.992,1.008
								C472.341,390.384,472.339,390.384,472.336,390.384z"/>
							<path style="fill:#FFD19E;" d="M489.451,334.564h-35.307c-0.553,0-1-0.447-1-1c0-0.553,0.447-1,1-1h35.307
								c0.553,0,1,0.447,1,1C490.451,334.116,490.004,334.564,489.451,334.564z"/>
						</g>
					</g>
					<g>
						<circle style="fill:#FFFFFF;" cx="415.005" cy="273.122" r="17.416"/>
						<g>
							<line style="fill:#FFFFFF;" x1="432.35" y1="273.537" x2="397.383" y2="273.537"/>
							<path style="fill:#FFD19E;" d="M432.35,274.537h-34.967c-0.553,0-1-0.447-1-1s0.447-1,1-1h34.967c0.553,0,1,0.447,1,1
								S432.902,274.537,432.35,274.537z"/>
						</g>
						<g>
							<line style="fill:#FFFFFF;" x1="414.866" y1="290.606" x2="414.866" y2="257.368"/>
							<path style="fill:#FFD19E;" d="M414.866,291.605c-0.553,0-1-0.447-1-1v-33.237c0-0.553,0.447-1,1-1s1,0.447,1,1v33.237
								C415.866,291.158,415.419,291.605,414.866,291.605z"/>
						</g>
					</g>
				</g>
			</g>
		</g>
		<g>
			<path style="fill:#FFFFFF;" d="M334.72,407.284l-5.78-5.916l-5.78,5.916v8.207h-5.863v-8.207l-5.78-5.916l-5.78,5.916v8.207
				h-7.012v-8.207l-5.78-5.916l-5.78,5.916v8.207h-1.796h-2.942h-2.376v-8.207l-5.78-5.916l-5.78,5.916v8.207h-5.863v-8.207
				l-5.78-5.916l-5.78,5.916v8.207h-7.012v-8.207l-5.78-5.916l-5.78,5.916v8.207h-4.738v5.2h4.738v6.174h-4.738v5.2h4.738v8.15
				h11.56v-8.15h7.012v8.15h11.56v-8.15h5.863v8.15h11.56v-8.15h2.376h2.942h1.796v8.15h11.56v-8.15h7.012v8.15h11.56v-8.15h5.863
				v8.15h11.56v-8.15h5.318v-5.2h-5.318v-6.174h5.318v-5.2h-5.318V407.284z M244.057,426.864v-6.174h7.012v6.174H244.057z
				 M262.629,426.864v-6.174h5.863v6.174H262.629z M285.37,426.864h-2.942h-2.376v-6.174h2.376h2.942h1.796v6.174H285.37z
				 M298.725,426.864v-6.174h7.012v6.174H298.725z M323.16,426.864h-5.863v-6.174h5.863V426.864z"/>
			<path style="fill:#FFFFFF;" d="M598.519,421.686v-4.744h-5.318v-9.658l-5.78-5.916l-5.78,5.916v9.658h-5.863v-9.658l-5.78-5.916
				l-5.78,5.916v9.658h-7.012v-9.658l-5.78-5.916l-5.78,5.916v9.658h-2.45h-2.288h-3.03v-9.658l-5.78-5.916l-5.78,5.916v9.658
				h-5.863v-9.658l-5.78-5.916l-5.78,5.916v9.658h-7.012v-9.658l-5.78-5.916l-5.78,5.916v9.658h-4.738v4.744h4.738v5.633h-4.738
				v4.744h4.738v8.15h11.56v-8.15h7.012v8.15h11.56v-8.15h5.863v8.15h11.56v-8.15h3.03h2.288h2.45v8.15h11.56v-8.15h7.012v8.15
				h11.56v-8.15h5.863v8.15h11.56v-8.15h5.318v-4.744h-5.318v-5.633H598.519z M501.884,427.319v-5.633h7.012v5.633H501.884z
				 M520.456,427.319v-5.633h5.863v5.633H520.456z M543.197,427.319h-2.288h-3.03v-5.633h3.03h2.288h2.45v5.633H543.197z
				 M557.206,427.319v-5.633h7.012v5.633H557.206z M581.641,427.319h-5.863v-5.633h5.863V427.319z"/>
		</g>
	</g>
	<g>
		<g>
			<path style="fill:#1B1F38;" d="M288.098,157.228c-3.395-0.877-5.707-4.035-5.724-7.541c-0.05-10.032,0.659-24.443-0.235-31.289
				c-1.374-10.519-9.214-24.042-22.559-21.669c1.304-16.079-9.252-32.156-24.618-39.075c-14.92-6.718-33.922-4.802-47.962,3.521
				c-3.283-9.114-11.863-15.759-22.134-16.076c-13.427-0.416-24.649,10.132-25.065,23.56c-0.387,12.507,8.74,23.097,20.845,24.826
				c-6.894,2.029-14.265,1.345-21.012,3.707c-6.665,2.334-12.451,7.058-15.533,13.164c-6.896,13.663-0.27,29.689,0.045,44.836
				c0.034,1.623-0.067,3.402-1.21,4.611c-1.078,1.14-2.79,1.467-4.37,1.783c-0.066,0.013-0.133,0.027-0.2,0.041
				c-9.011,1.908-14.813,10.897-12.812,19.888c4.906,22.043,33.387,16.474,48.829,16.441c37.686-0.08,116.914,0.237,139.087,0.578
				c4.971,0.076,9.353-3.454,10.111-8.368c0.008-0.051,0.016-0.102,0.023-0.154C305.17,179.004,302.421,160.929,288.098,157.228z"/>
			<path style="fill:#FFFFFF;" d="M252.206,158.658c-0.312,3.133,1.978,5.926,5.113,6.238c3.135,0.312,5.93-1.976,6.241-5.109
				c0.311-3.133-1.978-5.926-5.113-6.238C255.311,153.237,252.517,155.525,252.206,158.658z"/>
			<path style="opacity:0.63;fill:#0D0F1C;" d="M179.194,134.709c-0.771,0.984-1.459-5.661-2.631-5.257
				c-4.727,1.628-9.849,1.033-14.515,2.666c-4.362,1.527-8.149,4.62-10.166,8.616c-4.513,8.942-0.177,19.431,0.029,29.344
				c0.022,1.062-0.044,2.226-0.792,3.018c-0.705,0.746-1.826,0.96-2.86,1.167c-0.043,0.009-0.087,0.018-0.131,0.027
				c-5.898,1.249-9.695,7.132-8.385,13.016c3.211,14.427,21.681,10.221,31.788,10.2c24.665-0.052,76.689,0.716,91.201,0.939
				c3.254,0.05,6.122-2.261,6.618-5.477c0.005-0.033,0.01-0.067,0.015-0.101c1.026-7.204-0.773-19.034-10.148-21.456
				c-2.222-0.574-3.735-2.64-3.747-4.935c-0.033-6.566,0.431-15.998-0.154-20.478c-0.899-6.885-6.03-15.735-14.764-14.182
				c0.854-10.523-25.222,10.321-35.279,5.792L179.194,134.709z"/>
			<g>
				<g>
					<g>
						<g>
							<path style="fill:#E79A9A;" d="M230.152,111.14c-18.484-0.862-26.326-19.381-29.014-28.148l0.714,5.261
								c2.667,19.663-6.848,40.599-16.098,41.854l-12.623-1.13c-8.359-0.025-15.219,6.793-15.245,15.153l-0.001,0.347
								c-0.025,8.359,6.793,15.219,15.153,15.245l6.099,0.018l-3.3,48.139c-0.426,13.742,12.842,21.992,26.805,22.425l0.579,0.018
								c13.963,0.432,25.735-10.458,26.161-24.2l0.382-12.354c16.178-3.577,27.772-18.521,26.661-35.573l-2.538-38.923
								C251.075,115.17,244.772,111.821,230.152,111.14z"/>
						</g>
						<path style="fill:#DF6969;" d="M171.349,149.47c-0.34,0-0.671-0.173-0.859-0.486c-0.284-0.474-0.13-1.088,0.344-1.372
							l4.077-2.444l-4.328-5.197c-0.353-0.425-0.296-1.055,0.128-1.409c0.424-0.354,1.055-0.296,1.409,0.128l5.075,6.095
							c0.187,0.225,0.266,0.52,0.217,0.808s-0.221,0.54-0.472,0.69l-5.079,3.044C171.701,149.424,171.523,149.47,171.349,149.47z"/>
					</g>
					<g>
						<g>
							<path style="fill:#1B1F38;" d="M248.002,141.323c-0.001,1.626-1.32,2.943-2.946,2.942c-1.626-0.001-2.943-1.32-2.942-2.946
								c0.001-1.626,1.32-2.943,2.946-2.942C246.686,138.378,248.003,139.697,248.002,141.323z"/>
							<path style="fill:#1B1F38;" d="M217.524,141.197c-0.001,1.626-1.32,2.943-2.946,2.942c-1.626-0.001-2.943-1.32-2.942-2.946
								c0.001-1.626,1.32-2.943,2.946-2.942C216.208,138.253,217.525,139.572,217.524,141.197z"/>
							<path style="fill:#DF6969;" d="M216.97,145.787c-0.194,0-0.39-0.056-0.563-0.174c-1.941-1.324-3.857-0.056-3.938-0.002
								c-0.455,0.309-1.076,0.194-1.388-0.259c-0.311-0.453-0.202-1.07,0.249-1.385c0.126-0.087,3.104-2.119,6.204-0.006
								c0.456,0.311,0.574,0.933,0.263,1.39C217.604,145.634,217.29,145.787,216.97,145.787z"/>
							<path style="fill:#DF6969;" d="M247.591,145.528c-0.194,0-0.39-0.056-0.563-0.174c-1.942-1.325-3.856-0.056-3.938-0.002
								c-0.454,0.309-1.076,0.194-1.388-0.259c-0.311-0.453-0.202-1.07,0.249-1.385c0.125-0.087,3.104-2.119,6.204-0.006
								c0.456,0.311,0.574,0.933,0.263,1.39C248.225,145.375,247.911,145.528,247.591,145.528z"/>
						</g>
						<path style="fill:#FFFFFF;" d="M214.761,154.984c-7.658,0-13.907-6.209-13.946-13.876c-0.017-3.327,1.157-6.554,3.306-9.087
							c2.64-3.113,6.493-4.91,10.571-4.931c0.024,0,0.049,0,0.073,0c3.698,0,7.179,1.431,9.809,4.035
							c2.648,2.621,4.116,6.116,4.135,9.841c0.04,7.69-6.185,13.979-13.875,14.018C214.81,154.984,214.785,154.984,214.761,154.984z
							 M214.765,130.091c-0.02,0-0.039,0-0.058,0c-3.201,0.016-6.225,1.427-8.298,3.871c-1.686,1.988-2.607,4.521-2.594,7.131
							c0.031,6.017,4.936,10.891,10.946,10.891c0.019,0,0.038,0,0.057,0c6.036-0.031,10.922-4.967,10.891-11.003
							c-0.015-2.924-1.167-5.667-3.246-7.725C220.399,131.214,217.667,130.091,214.765,130.091z"/>
						<path style="fill:#FFFFFF;" d="M249.037,154.427c-3.699,0-7.18-1.431-9.811-4.035c-2.648-2.621-4.116-6.116-4.135-9.842
							c-0.019-3.725,1.414-7.235,4.035-9.882c2.621-2.648,6.116-4.116,9.841-4.135c0.024,0,0.049,0,0.073,0
							c7.657,0,13.906,6.209,13.945,13.876c0.039,7.69-6.185,13.979-13.876,14.019C249.084,154.427,249.061,154.427,249.037,154.427
							z M249.039,129.533c-0.019,0-0.038,0-0.057,0c-2.924,0.015-5.667,1.167-7.725,3.246c-2.057,2.078-3.182,4.833-3.167,7.757
							c0.015,2.924,1.168,5.667,3.246,7.725c2.064,2.043,4.797,3.167,7.7,3.167c0.019,0,0.038,0,0.057,0
							c6.036-0.031,10.921-4.967,10.891-11.003C259.954,134.407,255.048,129.533,249.039,129.533z"/>
						<g>
							<path style="fill:#E79A9A;" d="M230.632,131.489l0.497,11.358c0.061,1.401,1.247,2.487,2.647,2.425l2.522-0.11
								c1.909-0.084,3.524,1.396,3.608,3.305v0c0.207,4.728-3.458,8.729-8.186,8.936l-3.948,0.173"/>
							<path style="fill:#DF6969;" d="M227.771,158.575c-0.532,0-0.975-0.419-0.998-0.956c-0.024-0.552,0.403-1.019,0.955-1.043
								l3.948-0.173c4.17-0.183,7.414-3.723,7.231-7.893c-0.059-1.355-1.201-2.402-2.565-2.35l-2.521,0.11
								c-0.952,0.042-1.848-0.288-2.545-0.926c-0.697-0.639-1.104-1.51-1.145-2.455l-0.497-11.357
								c-0.024-0.552,0.403-1.019,0.955-1.043c0.544-0.021,1.019,0.403,1.043,0.955l0.497,11.357
								c0.018,0.411,0.195,0.79,0.498,1.067c0.303,0.278,0.696,0.425,1.106,0.403l2.522-0.11c2.498-0.1,4.543,1.804,4.651,4.261
								c0.231,5.271-3.87,9.747-9.141,9.978l-3.948,0.173C227.801,158.575,227.787,158.575,227.771,158.575z"/>
						</g>
						<g>
							<path style="fill:#FFFFFF;" d="M227.041,139.251c0,0,5.152-3.665,9.67-0.049"/>
							<path style="fill:#FFFFFF;" d="M227.911,140.474l-1.739-2.444c2.101-1.496,7.205-3.417,11.477,0.002l-1.874,2.343
								C232.182,137.497,227.952,140.443,227.911,140.474z"/>
						</g>
						<g>
							<g>
								<path style="fill:#DF6969;" d="M234.456,176.565c-0.13,0.041-0.274,0.038-0.411-0.017c-0.138-0.056-3.439-1.34-5.734,1.307
									c-0.221,0.255-0.608,0.283-0.865,0.061c-0.256-0.222-0.284-0.609-0.063-0.864c2.882-3.32,7.081-1.657,7.124-1.64
									c0.312,0.128,0.462,0.484,0.335,0.797C234.77,176.386,234.625,176.512,234.456,176.565z"/>
							</g>
						</g>
						<g>
							<g>
								<g>
									<g>
										<g>
											<g>
												<path style="fill:#1B1F38;" d="M206.466,121.094c1.094,0.297,2.41-0.023,3.698-0.26
													c1.293-0.265,2.598-0.499,3.738-0.663c1.144-0.165,2.463-0.308,3.778-0.418c1.304-0.137,2.663-0.202,3.614-0.793
													c0.921-0.556,1.149-1.801-0.222-3.096c-1.295-1.265-4.371-2.402-8.155-1.867c-3.777,0.553-6.361,2.503-7.204,4.076
													C204.809,119.697,205.413,120.822,206.466,121.094z"/>
											</g>
										</g>
									</g>
									<g>
										<g>
											<g>
												<path style="fill:#1B1F38;" d="M241.985,122.291c1.075-0.359,2.407-0.116,3.707,0.045
													c1.306,0.19,2.622,0.348,3.771,0.445c1.151,0.098,2.476,0.165,3.796,0.199c1.309,0.061,2.67,0.048,3.654,0.582
													c0.952,0.502,1.252,1.732-0.043,3.103c-1.22,1.338-4.224,2.651-8.033,2.336c-3.803-0.333-6.495-2.131-7.428-3.652
													C240.411,123.783,240.949,122.624,241.985,122.291z"/>
											</g>
										</g>
									</g>
								</g>
							</g>
						</g>
						<path style="fill:#DF6969;" d="M218.141,166.282c-2.554,0-4.917-2.173-5.49-5.138l-0.219-1.136
							c-0.104-0.542,0.25-1.066,0.792-1.171c0.545-0.105,1.066,0.25,1.171,0.792l0.219,1.136c0.412,2.129,2.061,3.682,3.765,3.506
							l6.988-0.672c0.557-0.051,1.039,0.351,1.091,0.9c0.053,0.55-0.35,1.038-0.9,1.091l-6.988,0.672
							C218.427,166.275,218.284,166.282,218.141,166.282z"/>
					</g>
					<path style="fill:#DF6969;" d="M229.733,193.794c0,0-29.837,0.472-34.499-10.286c-4.662-10.758,0,0,0,0
						s-1.859,16.139,33.801,25.69L229.733,193.794z"/>
				</g>
				<path style="fill:#FFFFFF;" d="M164.702,158.658c-0.312,3.133,1.978,5.926,5.113,6.238c3.135,0.312,5.93-1.976,6.241-5.109
					c0.311-3.133-1.978-5.926-5.113-6.238C167.807,153.237,165.013,155.525,164.702,158.658z"/>
			</g>
		</g>
		<g>
			<g>
				<g>
					<g>
						<path style="fill:#FFFFFF;" d="M389.643,239.93l-42.625-1.169c-1.103-0.03-1.972-0.949-1.942-2.052l0.261-9.53
							c0.03-1.103,0.949-1.972,2.052-1.942l42.625,1.169c1.103,0.03,1.972,0.949,1.942,2.052l-0.261,9.53
							C391.664,239.091,390.745,239.961,389.643,239.93z"/>
						<path style="fill:#EFEEED;" d="M386.924,233.085c-1.149,0-2.084-0.935-2.084-2.084c0-1.149,0.935-2.083,2.084-2.083
							c1.148,0,2.083,0.935,2.083,2.083C389.007,232.149,388.072,233.085,386.924,233.085z M386.924,229.917
							c-0.598,0-1.084,0.486-1.084,1.083c0,0.598,0.486,1.084,1.084,1.084c0.598,0,1.083-0.486,1.083-1.084
							C388.007,230.403,387.521,229.917,386.924,229.917z"/>
						<g>
							<path style="fill:#3F4EBC;" d="M391.603,236.463l-46.812-2.384c-2.098-0.107-3.904,1.466-4.086,3.558l-5.366,61.432
								l-45.243-64.712l0,0c-19.617-24.605-54.024-22.803-54.024-22.803l-0.701,49.97l13.098,49.721l76.071,58.02
								c25.169,19.196,61.518,2.014,62.658-29.62l7.359-99.836C394.685,238.063,393.352,236.552,391.603,236.463z"/>
						</g>
						<g>
							<g>
								<g>
									<g>
										<g>
											<g>
												<path style="fill:#E79A9A;" d="M387.265,226.303c2.187-2.768,3.597-7.298,4.48-11.658
													c1.196-5.904,0.124-12.042-2.881-17.263l0,0l-4.715,2.211l-15.809-7.628c-7.778-3.753-16.826,1.814-16.981,10.449
													c-0.185,10.326-1.266,17.752,0.876,22.658"/>
											</g>
										</g>
										<path style="opacity:0.46;fill:#DF6969;" d="M358.121,191.981c0,0-11.691,29.462,12.376,24.63
											c24.067-4.832,11.597-24.416,11.597-24.416L358.121,191.981z"/>
									</g>
								</g>
							</g>
							<g>
								<g>
									<path style="fill:#E79A9A;" d="M348.468,190.379c3.265-2.419,7.466-4.3,12.262-3.621c0,0,5.383,1.434,1.805,6.027
										c-3.579,4.593-10.895,11.495-11.327,15.361c-0.432,3.866,1.274,2.105,1.274,2.105l-5.802-5.358
										C343.043,200.426,343.84,193.808,348.468,190.379z"/>
									<path style="fill:#E79A9A;" d="M356.159,200.188c2.22-2.609,4.704-5.258,6.376-7.403c3.579-4.593-1.805-6.027-1.805-6.027
										c-4.795-0.678-8.996,1.203-12.262,3.621c-4.507,3.339-5.368,9.696-2.052,14.151
										C348.91,201.674,352.5,200.144,356.159,200.188z"/>
									<g>
										<g>
											<g>
												<g>
													<path style="fill:#CE6F28;" d="M372.701,223.454c1.56-1.544,2.742-3.51,3.344-5.785
														c1.797-6.799-2.256-13.767-9.055-15.565c-6.799-1.798-13.767,2.256-15.565,9.055s2.256,13.767,9.055,15.565
														c1.265,0.335,2.536,0.466,3.778,0.415l-0.07,0.032l1.865,3.947l1.476,0.529l1.095,2.318l-0.578,1.614l2.721,0.975
														l-0.826,2.306l2.872,6.077l2.86,1.024l-1.024,2.86l6.596,2.362l1.966-5.489
														C383.211,245.694,373.678,225.522,372.701,223.454z"/>
												</g>
												<path style="fill:#D88139;" d="M379.533,245.761c-0.188,0-0.368-0.106-0.453-0.288l-9.417-20.07
													c-0.105-0.224-0.031-0.49,0.174-0.627l2.586-1.736c0.229-0.156,0.54-0.093,0.694,0.136
													c0.154,0.23,0.093,0.54-0.136,0.694l-2.23,1.497l9.234,19.682c0.117,0.25,0.01,0.548-0.24,0.665
													C379.676,245.746,379.603,245.761,379.533,245.761z"/>
											</g>
										</g>
										<path style="fill:#DFE0FC;" d="M361.706,211.864c-2.246,0-4.425-0.718-6.26-2.084c-2.255-1.678-3.721-4.134-4.129-6.916
											c-0.408-2.781,0.292-5.554,1.971-7.809c1.678-2.255,4.134-3.721,6.915-4.129c5.737-0.84,11.097,3.145,11.938,8.886l0,0
											c0.841,5.741-3.145,11.097-8.886,11.938C362.738,211.827,362.221,211.864,361.706,211.864z M361.735,191.814
											c-0.458,0-0.921,0.033-1.387,0.102c-2.517,0.369-4.739,1.696-6.258,3.737c-1.519,2.041-2.152,4.55-1.784,7.067
											c0.369,2.517,1.696,4.739,3.737,6.258c2.04,1.519,4.549,2.152,7.067,1.783c5.196-0.762,8.803-5.608,8.042-10.804
											C370.459,195.228,366.381,191.814,361.735,191.814z"/>
										<g>
											<g>
												<g>
													<path style="fill:#E59515;" d="M366.891,219.49c3.634-6.02,1.701-13.847-4.32-17.481
														c-6.02-3.635-13.847-1.701-17.481,4.32c-3.635,6.02-1.701,13.847,4.32,17.481c1.12,0.676,2.303,1.159,3.51,1.459
														l-0.076,0.011l0.682,4.312l1.268,0.922l0.4,2.532l-1.008,1.387l2.338,1.7l-1.44,1.982l1.05,6.638l2.457,1.786
														l-1.786,2.457l5.667,4.12l3.428-4.716c0,0-3.484-22.037-3.842-24.296C363.987,223.059,365.674,221.505,366.891,219.49z
														 M358.167,211.642c-0.912,1.511-2.876,1.996-4.387,1.084c-1.511-0.912-1.996-2.876-1.084-4.387
														c0.912-1.511,2.876-1.996,4.387-1.084C358.594,208.167,359.079,210.132,358.167,211.642z"/>
												</g>
											</g>
											<path style="fill:#D88139;" d="M355.425,213.685c-0.65,0-1.308-0.171-1.903-0.53c-1.744-1.054-2.307-3.33-1.254-5.074
												c0.51-0.845,1.319-1.441,2.277-1.678c0.959-0.236,1.951-0.086,2.796,0.424c1.744,1.053,2.307,3.329,1.254,5.074l0,0
												C357.901,213.049,356.678,213.685,355.425,213.685z M355.436,207.296c-0.914,0-1.806,0.464-2.312,1.302
												c-0.768,1.272-0.358,2.933,0.914,3.701c1.272,0.768,2.933,0.358,3.701-0.914c0.768-1.272,0.358-2.933-0.914-3.701
												C356.39,207.421,355.91,207.296,355.436,207.296z M358.167,211.643h0.01H358.167z"/>
											<path style="fill:#D88139;" d="M362.93,247.443c-0.239,0-0.451-0.172-0.492-0.416l-3.748-21.851
												c-0.042-0.243,0.1-0.48,0.335-0.559l2.954-0.987c0.262-0.088,0.545,0.054,0.632,0.316
												c0.087,0.262-0.054,0.545-0.316,0.632l-2.546,0.851l3.675,21.428c0.047,0.272-0.136,0.531-0.408,0.577
												C362.987,247.441,362.958,247.443,362.93,247.443z"/>
										</g>
										<path style="fill:#DFE0FC;" d="M357.817,211.069c-0.065,0-0.132-0.013-0.196-0.04c-3.41-1.449-5.767-4.501-6.304-8.164
											c-0.842-5.742,3.145-11.097,8.886-11.938c0.278-0.044,0.528,0.149,0.567,0.422c0.04,0.273-0.149,0.527-0.422,0.567
											c-2.517,0.369-4.739,1.696-6.258,3.737c-1.519,2.041-2.152,4.55-1.784,7.067c0.486,3.315,2.619,6.077,5.707,7.389
											c0.254,0.108,0.372,0.401,0.264,0.656C358.197,210.955,358.012,211.069,357.817,211.069z"/>
									</g>
									<g>
										<path style="fill:#E79A9A;" d="M382.214,182.081l0.252,0.188c1.907,1.423,2.303,4.147,0.88,6.054l-8.607,11.535
											c-1.423,1.907-4.147,2.303-6.054,0.88l-0.252-0.188c-1.907-1.423-2.303-4.147-0.88-6.054l8.607-11.535
											C377.582,181.055,380.307,180.659,382.214,182.081z"/>
										<path style="fill:#E79A9A;" d="M375.059,176.554l0.252,0.188c1.907,1.423,2.303,4.147,0.88,6.054l-9.276,12.432
											c-1.423,1.907-4.147,2.303-6.054,0.88l-0.252-0.188c-1.907-1.423-2.303-4.147-0.88-6.054l9.276-12.431
											C370.428,175.527,373.152,175.131,375.059,176.554z"/>
										<path style="fill:#E79A9A;" d="M387.486,189.803l0.252,0.188c1.907,1.423,2.303,4.147,0.88,6.054l-5.655,7.579
											c-1.423,1.907-4.147,2.303-6.054,0.88l-0.252-0.188c-1.907-1.423-2.303-4.147-0.88-6.054l5.655-7.579
											C382.855,188.777,385.579,188.381,387.486,189.803z"/>
										<path style="fill:#E79A9A;" d="M394.274,194.978l0.252,0.188c1.907,1.423,2.303,4.147,0.88,6.054l-2.88,3.86
											c-1.423,1.907-4.147,2.303-6.054,0.88l-0.252-0.188c-1.907-1.423-2.303-4.147-0.88-6.054l2.88-3.86
											C389.643,193.951,392.367,193.555,394.274,194.978z"/>
										<path style="fill:#DF6969;" d="M366.914,195.727c-0.104,0-0.209-0.032-0.298-0.099c-0.222-0.165-0.267-0.479-0.102-0.7
											l9.276-12.432c0.165-0.222,0.479-0.266,0.7-0.102c0.222,0.166,0.267,0.479,0.102,0.7l-9.276,12.432
											C367.217,195.658,367.066,195.727,366.914,195.727z"/>
										<path style="fill:#DF6969;" d="M374.738,200.358c-0.099,0-0.199-0.029-0.287-0.091c-0.226-0.159-0.28-0.471-0.122-0.697
											l7.459-10.621c0.158-0.226,0.469-0.281,0.697-0.122c0.225,0.159,0.28,0.471,0.121,0.697l-7.459,10.621
											C375.05,200.284,374.895,200.358,374.738,200.358z"/>
										<path style="fill:#DF6969;" d="M384.146,202.537c-0.099,0-0.198-0.029-0.285-0.089c-0.227-0.157-0.284-0.469-0.126-0.696
											l5.187-7.49c0.157-0.228,0.471-0.284,0.695-0.126c0.228,0.157,0.284,0.469,0.127,0.696l-5.186,7.49
											C384.461,202.462,384.305,202.537,384.146,202.537z"/>
									</g>
								</g>
							</g>
						</g>
						<path style="opacity:0.77;fill:#2E3B62;" d="M334.409,311.616c-0.028,0-0.056-0.001-0.085-0.004
							c-0.551-0.046-0.959-0.529-0.913-1.08l1.924-22.908c0.046-0.55,0.525-0.974,1.08-0.912c0.551,0.046,0.959,0.529,0.913,1.08
							l-1.924,22.908C335.36,311.222,334.923,311.616,334.409,311.616z"/>
					</g>
				</g>
				<g>
					<path style="fill:#3F4EBC;" d="M278.814,370.085l6.542-58.903c0,0-14.061-28.943-22.91-71.948
						c-2.632-12.791-13.777-24.13-26.087-28.489l-9.858-3.13l-23.459,8.19l-32.601-13.768l-35.027,7.538
						c0,0-50.573,12.348-48.783,75.617c0.036,1.26,0.951,2.324,2.192,2.54l16.335,61.553l23.608,28.038
						c-11.948,24.486-19.695,47.865-24.013,62.803c-0.021,0.073,198.6,0.106,198.596,0.054
						C300.908,400.073,278.814,370.085,278.814,370.085z"/>
					<g>
						<path style="opacity:0.77;fill:#2E3B62;" d="M169.107,298.689c-0.345,0-0.681-0.179-0.866-0.499l-17.638-30.466
							c-0.508-0.878-0.593-1.926-0.233-2.874c0.36-0.949,1.119-1.677,2.082-1.996l6.659-2.206c0.441-0.146,0.763-0.487,0.884-0.935
							c0.121-0.448,0.014-0.905-0.293-1.254l-18.026-20.426c-0.637-0.722-0.933-1.683-0.814-2.638
							c0.12-0.955,0.644-1.814,1.438-2.356l11.757-8.029c0.456-0.312,1.079-0.194,1.39,0.262c0.312,0.456,0.194,1.078-0.262,1.39
							l-11.757,8.029c-0.326,0.223-0.533,0.561-0.581,0.953c-0.049,0.392,0.068,0.771,0.329,1.067l18.026,20.426
							c0.748,0.849,1.019,2.007,0.724,3.099s-1.112,1.955-2.185,2.311l-6.659,2.206c-0.389,0.129-0.696,0.424-0.842,0.808
							c-0.146,0.383-0.111,0.807,0.094,1.162l17.638,30.466c0.277,0.478,0.114,1.09-0.364,1.366
							C169.45,298.646,169.277,298.689,169.107,298.689z"/>
						<path style="opacity:0.77;fill:#2E3B62;" d="M242.715,296.59c-0.144,0-0.288-0.03-0.427-0.096
							c-0.5-0.236-0.713-0.832-0.477-1.332l15.042-31.828c0.175-0.37,0.174-0.796-0.003-1.166c-0.177-0.37-0.507-0.638-0.906-0.734
							l-6.819-1.645c-1.1-0.265-1.985-1.058-2.37-2.122c-0.385-1.064-0.211-2.24,0.464-3.146l16.264-21.856
							c0.236-0.316,0.321-0.704,0.24-1.09c-0.082-0.387-0.315-0.707-0.659-0.901l-12.385-7.022c-0.48-0.272-0.649-0.883-0.377-1.363
							c0.272-0.48,0.881-0.648,1.363-0.377l12.385,7.023c0.837,0.475,1.431,1.288,1.63,2.229c0.198,0.941-0.018,1.924-0.592,2.696
							l-16.264,21.855c-0.277,0.373-0.346,0.837-0.188,1.273c0.158,0.436,0.507,0.749,0.958,0.858l6.819,1.645
							c0.986,0.237,1.803,0.899,2.241,1.814c0.438,0.915,0.441,1.967,0.007,2.884l-15.042,31.829
							C243.449,296.379,243.089,296.59,242.715,296.59z"/>
						<path style="opacity:0.77;fill:#2E3B62;" d="M279.052,400.815h-27.875c-0.552,0-1-0.447-1-1c0-0.553,0.448-1,1-1h27.875
							c0.552,0,1,0.447,1,1C280.052,400.368,279.604,400.815,279.052,400.815z"/>
						<path style="opacity:0.77;fill:#2E3B62;" d="M163.324,400.815h-27.874c-0.552,0-1-0.447-1-1c0-0.553,0.448-1,1-1h27.874
							c0.552,0,1,0.447,1,1C164.324,400.368,163.876,400.815,163.324,400.815z"/>
						<g>
							<path style="fill:#E59515;" d="M270.192,273.987h-26.114c-0.726,0-1.315-0.589-1.315-1.315v-5.284
								c0-0.726,0.589-1.315,1.315-1.315h26.114c0.726,0,1.315,0.589,1.315,1.315v5.284
								C271.506,273.398,270.918,273.987,270.192,273.987z"/>
							<path style="fill:#EFEEED;" d="M270.191,274.487h-26.114c-1.001,0-1.814-0.814-1.814-1.815v-5.284
								c0-1.001,0.814-1.814,1.814-1.814h26.114c1.001,0,1.815,0.813,1.815,1.814v5.284
								C272.006,273.673,271.192,274.487,270.191,274.487z M244.078,266.573c-0.449,0-0.814,0.365-0.814,0.814v5.284
								c0,0.449,0.365,0.815,0.814,0.815h26.114c0.449,0,0.815-0.366,0.815-0.815v-5.284c0-0.449-0.366-0.814-0.815-0.814H244.078z"
								/>
						</g>
					</g>
				</g>
				<g>
					<polygon style="fill:#FFFFFF;" points="231.876,215.805 203.042,215.245 173.887,210.888 178.778,440.192 240.426,440.18 					
						"/>
					<path style="fill:#EFEEED;" d="M213.929,429.52c-0.53,0-0.972-0.416-0.998-0.951l-10.313-211.448
						c-0.027-0.552,0.399-1.021,0.95-1.048c0.534-0.017,1.021,0.398,1.048,0.95l10.313,211.448c0.027,0.552-0.399,1.021-0.95,1.048
						C213.962,429.52,213.946,429.52,213.929,429.52z"/>
					<path style="fill:#EFEEED;" d="M196.026,252.328c-2.13,0-3.863-1.733-3.863-3.863c0-2.13,1.733-3.863,3.863-3.863
						s3.863,1.733,3.863,3.863C199.889,250.595,198.156,252.328,196.026,252.328z M196.026,246.602
						c-1.027,0-1.863,0.836-1.863,1.863c0,1.027,0.835,1.863,1.863,1.863c1.027,0,1.863-0.835,1.863-1.863
						C197.889,247.438,197.053,246.602,196.026,246.602z"/>
					<path style="fill:#EFEEED;" d="M196.026,298.131c-2.13,0-3.863-1.733-3.863-3.863c0-2.13,1.733-3.862,3.863-3.862
						s3.863,1.732,3.863,3.862C199.889,296.397,198.156,298.131,196.026,298.131z M196.026,292.405
						c-1.027,0-1.863,0.835-1.863,1.862c0,1.027,0.835,1.863,1.863,1.863c1.027,0,1.863-0.836,1.863-1.863
						C197.889,293.24,197.053,292.405,196.026,292.405z"/>
					<path style="fill:#EFEEED;" d="M198.889,390.246c-2.13,0-3.863-1.732-3.863-3.862c0-2.13,1.733-3.863,3.863-3.863
						c2.13,0,3.863,1.733,3.863,3.863C202.751,388.514,201.019,390.246,198.889,390.246z M198.889,384.521
						c-1.027,0-1.863,0.836-1.863,1.863c0,1.027,0.835,1.862,1.863,1.862c1.027,0,1.863-0.835,1.863-1.862
						C200.751,385.356,199.916,384.521,198.889,384.521z"/>
					<path style="fill:#EFEEED;" d="M198.889,425.131c-2.13,0-3.863-1.732-3.863-3.862c0-2.13,1.733-3.863,3.863-3.863
						c2.13,0,3.863,1.733,3.863,3.863C202.751,423.398,201.019,425.131,198.889,425.131z M198.889,419.405
						c-1.027,0-1.863,0.836-1.863,1.863c0,1.027,0.835,1.862,1.863,1.862c1.027,0,1.863-0.835,1.863-1.862
						C200.751,420.241,199.916,419.405,198.889,419.405z"/>
					<path style="fill:#EFEEED;" d="M177.199,199.376l25.843,15.869l-12.772,12.613c-2.064,2.039-5.303,2.279-7.646,0.566
						L162.6,213.787c-2.258-1.65-2.18-5.045,0.152-6.59l11.735-7.775C175.305,198.88,176.363,198.862,177.199,199.376z"/>
					<path style="fill:#EFEEED;" d="M221.074,228.836l23.265-12.217c1.825-0.958,1.915-3.537,0.161-4.62l-13.952-8.618
						c-0.757-0.467-1.699-0.516-2.5-0.129l-24.43,11.813l11.621,12.73C216.698,229.469,219.125,229.902,221.074,228.836z"/>
				</g>
				<g>
					<polygon style="fill:none;" points="143.945,322.496 146.866,322.036 143.982,321.812 					"/>
					<path style="fill:#3F4EBC;" d="M243.451,309.639c-0.419-1.543-1.932-2.518-3.511-2.269L156.1,320.581l-9.234,1.455l-2.922,0.46
						l0.037-0.684l0-0.002l1.321-24.279l-56.798-11.195l-1.921-2.589c0.322,11.951,0.644,23.901,0.966,35.852
						c0.511,18.978,1.145,37.037,17.603,49.846c7.235,5.632,16.248,8.815,25.377,9.351c9.257,0.543,102.626-14.559,126.066-20.798
						C256.596,357.999,246.319,320.192,243.451,309.639z"/>
					<g>
						<g>
							<g>
								
									<ellipse transform="matrix(0.6068 -0.7949 0.7949 0.6068 -95.9367 358.8394)" style="opacity:0.84;fill:#FFFFFF;" cx="314.7" cy="276.38" rx="29.697" ry="29.697"/>
								
									<ellipse transform="matrix(0.7071 -0.7071 0.7071 0.7071 -103.3222 303.2909)" style="opacity:0.58;fill:none;" cx="314.443" cy="276.366" rx="29.697" ry="29.697"/>
								<g>
									<g>
										<g>
											<g>
												<path style="fill:#1B1F38;" d="M264.349,321.705c0.759,0.863,1.8,1.332,2.863,1.389
													c1.035,0.056,2.092-0.278,2.932-1.017l20.567-18.09c0.465-0.409,0.811-0.901,1.045-1.433
													c5.616,4.872,12.829,7.989,20.828,8.418c19.112,1.026,35.438-13.635,36.464-32.747
													c1.026-19.112-13.635-35.438-32.747-36.464c-19.112-1.026-35.438,13.635-36.464,32.747
													c-0.451,8.402,2.132,16.265,6.79,22.527c-0.479,0.17-0.935,0.429-1.34,0.785l-20.567,18.09
													C263.018,317.407,262.852,320.002,264.349,321.705z M312.851,306.021c-16.378-0.88-28.942-14.87-28.062-31.247
													c0.88-16.378,14.87-28.942,31.247-28.062c16.378,0.88,28.942,14.87,28.062,31.247
													C343.219,294.337,329.229,306.901,312.851,306.021z"/>
											</g>
										</g>
									</g>
								</g>
								<g>
									<path style="fill:#FFFFFF;" d="M275.177,306.764l5.081,5.658c0.723,0.805,1.962,0.872,2.768,0.149l3.44-3.089
										c0.805-0.723,0.872-1.962,0.149-2.768l-5.082-5.658c-0.723-0.805-1.962-0.872-2.767-0.149l-3.44,3.089
										C274.52,304.72,274.453,305.959,275.177,306.764z"/>
									<g>
										<path style="fill:#FFD8AC;" d="M250.692,334.026L250.692,334.026c2.343,2.637,6.36,2.853,8.972,0.482l25.692-23.326
											c0.666-0.605-7.845-10.132-8.485-9.551l-25.692,23.326C248.567,327.328,248.349,331.388,250.692,334.026z"/>
									</g>
								</g>
							</g>
							<g style="opacity:0.39;">
								<g>
									<g>
										<path style="fill:#5885F9;" d="M328.977,293.576c-0.018,0-0.036,0-0.054-0.001l-11.728-0.63
											c-0.265-0.015-0.513-0.134-0.69-0.331c-0.177-0.197-0.269-0.457-0.254-0.722l0.504-9.381l-4.474-0.241l-0.504,9.383
											c-0.014,0.265-0.133,0.513-0.331,0.691c-0.197,0.177-0.456,0.27-0.722,0.255l-11.459-0.616
											c-0.551-0.03-0.975-0.501-0.945-1.053l0.949-17.659c0.015-0.274,0.142-0.531,0.352-0.709l15.511-13.16
											c0.414-0.35,1.03-0.309,1.391,0.095l14.096,15.696c0.177,0.197,0.269,0.457,0.254,0.722l-0.897,16.716
											c-0.014,0.265-0.133,0.513-0.331,0.69C329.461,293.485,329.223,293.576,328.977,293.576z M318.301,291.001l9.731,0.523
											l0.821-15.304l-13.169-14.665l-14.441,12.252l-0.872,16.23l9.462,0.509l0.504-9.382c0.014-0.265,0.133-0.513,0.331-0.69
											c0.197-0.178,0.458-0.269,0.722-0.255l6.471,0.348c0.551,0.03,0.975,0.501,0.945,1.053L318.301,291.001z"/>
										<path style="fill:#5885F9;" d="M333.249,279.476c-0.264,0-0.527-0.103-0.724-0.31l-16.831-17.641l-19.154,15.718
											c-0.426,0.351-1.057,0.287-1.407-0.139c-0.351-0.428-0.289-1.058,0.139-1.408l19.871-16.306
											c0.405-0.331,0.997-0.295,1.358,0.083l17.471,18.312c0.381,0.399,0.366,1.032-0.033,1.414
											C333.746,279.384,333.498,279.476,333.249,279.476z"/>
										<path style="fill:#5885F9;" d="M315.103,273.514c-0.039,0-0.079-0.001-0.119-0.004c-0.569-0.029-1.094-0.28-1.476-0.706
											c-0.382-0.425-0.575-0.974-0.544-1.544c0.031-0.57,0.282-1.095,0.707-1.477c0.425-0.383,0.974-0.587,1.544-0.544
											c0.569,0.029,1.094,0.28,1.477,0.706c0.382,0.425,0.575,0.974,0.544,1.544c-0.031,0.57-0.282,1.095-0.707,1.477
											C316.134,273.321,315.631,273.514,315.103,273.514z M315.103,271.235c-0.066,0-0.139,0.068-0.142,0.132
											c-0.003,0.065,0.065,0.143,0.13,0.146c0.058,0.037,0.144-0.065,0.147-0.131c0.003-0.065-0.065-0.143-0.131-0.146
											C315.107,271.235,315.105,271.235,315.103,271.235z"/>
									</g>
									<path style="fill:#5885F9;" d="M303.038,271.727c-0.148,0-0.297-0.033-0.436-0.1c-0.363-0.176-0.585-0.552-0.563-0.954
										l0.645-12.012c0.014-0.265,0.133-0.513,0.331-0.69c0.197-0.178,0.458-0.269,0.722-0.255l5.01,0.27
										c0.551,0.03,0.975,0.501,0.945,1.053l-0.38,7.084c-0.014,0.267-0.136,0.518-0.336,0.696l-5.275,4.658
										C303.513,271.641,303.276,271.727,303.038,271.727z M304.627,259.768l-0.463,8.63l3.172-2.801l0.304-5.667L304.627,259.768
										z M308.313,266.068h0.01H308.313z"/>
								</g>
							</g>
							<path style="opacity:0.43;fill:#5885F9;" d="M338.258,274.049c-0.508,0-0.942-0.385-0.994-0.9
								c-1.75-17.486-18.957-20.089-19.689-20.191c-0.547-0.076-0.929-0.581-0.853-1.128c0.077-0.547,0.587-0.926,1.126-0.853
								c0.195,0.027,19.497,2.901,21.405,21.973c0.055,0.55-0.346,1.04-0.896,1.095
								C338.325,274.047,338.291,274.049,338.258,274.049z"/>
							<g>
								<g>
									<g>
										<path style="fill:#E79A9A;" d="M293.707,318.213c0.597-7.905-9.399-6.85-15.448-6.953
											c-2.859,0.157-5.473,0.266-7.918,0.352c1.771-2.197,3.555-4.425,4.437-7.088c0.284-0.857,0.448-1.867-0.066-2.61
											c-0.395-0.571-1.119-0.844-1.813-0.859c-0.694-0.015-1.372,0.193-2.031,0.411c-6.146,2.037-22.707,11.264-22.707,11.264
											c-1.658,1.14-3.253,2.423-4.751,3.807c-3.546,3.277,5.195,33.363,8.118,32.926l25.114-3.114
											c4.649-0.338,8.061-5.262,4.898-6.899c3.559,0.668,7.701,0.127,8.065-4.307c0.487-2.425-1.037-3.577-3.013-4.215
											c3.269,0.53,6.56,0.418,7.144-3.238c1.205-3.876-1.723-5.478-4.892-6.248
											C291.123,321.549,293.266,320.939,293.707,318.213z"/>
										<path style="opacity:0.36;fill:#DF6969;" d="M270.341,311.612l-13.654,1.654c0,0,14.19-5.704,16.683-5.779
											L270.341,311.612z"/>
									</g>
									<path style="fill:#DF6969;" d="M280.728,322.06c-0.266,0-0.487-0.21-0.499-0.477c-0.012-0.276,0.202-0.51,0.478-0.522
										c0.833-0.038,8.179-0.353,9.504-0.039c0.269,0.063,0.435,0.333,0.371,0.602c-0.063,0.269-0.33,0.436-0.602,0.371
										c-0.901-0.214-6.013-0.078-9.23,0.065C280.744,322.06,280.736,322.06,280.728,322.06z"/>
								</g>
								<path style="fill:#DF6969;" d="M288.236,331.626c-0.009,0-0.018,0-0.027-0.001l-9.421-0.506
									c-0.276-0.015-0.487-0.25-0.473-0.525c0.015-0.276,0.253-0.498,0.526-0.473l9.421,0.506c0.276,0.015,0.487,0.25,0.473,0.525
									C288.72,331.419,288.499,331.626,288.236,331.626z"/>
								<path style="fill:#DF6969;" d="M282.27,340.102c-0.001,0-0.003,0-0.004,0l-7.902-0.066
									c-0.276-0.002-0.498-0.229-0.496-0.504c0.002-0.275,0.226-0.496,0.5-0.496c0.001,0,0.003,0,0.004,0l7.902,0.066
									c0.276,0.002,0.498,0.229,0.496,0.504C282.768,339.881,282.544,340.102,282.27,340.102z"/>
							</g>
						</g>
						<g>
							<path style="fill:#FFFFFF;" d="M243.246,353.227l-4.808-42.369c-0.124-1.096,0.663-2.086,1.76-2.21l9.472-1.075
								c1.096-0.124,2.086,0.664,2.21,1.76l4.808,42.369c0.124,1.096-0.664,2.086-1.76,2.21l-9.472,1.075
								C244.36,355.111,243.37,354.323,243.246,353.227z"/>
							<path style="fill:#EFEEED;" d="M251.702,351.369c-0.448,0-0.883-0.145-1.247-0.419c-0.444-0.335-0.732-0.822-0.811-1.373
								c-0.078-0.552,0.063-1.1,0.398-1.545c0.335-0.445,0.823-0.732,1.374-0.81c0.548-0.076,1.099,0.063,1.543,0.397
								c0.445,0.335,0.733,0.823,0.811,1.375c0.078,0.551-0.063,1.099-0.398,1.544c-0.335,0.444-0.823,0.731-1.374,0.81
								C251.9,351.361,251.801,351.369,251.702,351.369z M251.71,348.201c-0.051,0-0.102,0.003-0.154,0.011
								c-0.287,0.04-0.541,0.19-0.715,0.422c-0.174,0.231-0.247,0.517-0.207,0.803c0.04,0.286,0.19,0.54,0.421,0.714
								c0.231,0.174,0.516,0.25,0.803,0.207h0c0.287-0.04,0.54-0.189,0.714-0.421c0.174-0.231,0.248-0.517,0.207-0.803
								c-0.041-0.287-0.19-0.541-0.422-0.716C252.169,348.275,251.943,348.201,251.71,348.201z"/>
						</g>
					</g>
					<g>
						<polygon style="opacity:0.24;fill:#2E3B62;" points="146.866,322.036 156.1,320.581 146.969,271.191 143.982,321.81 
							143.982,321.812 						"/>
						<path style="opacity:0.48;fill:#2E3B62;" d="M143.469,322.328c-0.019,0-0.038-0.001-0.057-0.002
							c-0.551-0.03-0.974-0.502-0.943-1.054l2.396-42.966c0.031-0.552,0.508-0.962,1.054-0.942c0.551,0.03,0.974,0.502,0.943,1.054
							l-2.396,42.966C144.437,321.916,143.996,322.328,143.469,322.328z"/>
						<path style="opacity:0.48;fill:#2E3B62;" d="M137.068,323.785c-0.493,0-0.922-0.364-0.99-0.867
							c-0.073-0.547,0.311-1.051,0.858-1.124l37.662-5.054c0.543-0.069,1.051,0.311,1.124,0.858
							c0.073,0.547-0.311,1.051-0.858,1.124l-37.662,5.054C137.157,323.782,137.112,323.785,137.068,323.785z"/>
						<path style="opacity:0.48;fill:#2E3B62;" d="M128.764,380.421c-0.484,0-0.91-0.353-0.987-0.847
							c-0.085-0.545,0.289-1.057,0.835-1.142l48.555-7.556c0.544-0.082,1.057,0.288,1.142,0.835
							c0.085,0.545-0.289,1.057-0.835,1.142l-48.555,7.556C128.867,380.417,128.815,380.421,128.764,380.421z"/>
						<path style="opacity:0.48;fill:#2E3B62;" d="M238.109,363.405c-0.484,0-0.91-0.353-0.987-0.846
							c-0.085-0.546,0.289-1.058,0.834-1.143l6.693-1.042c1.347-0.209,2.302-1.436,2.174-2.794l-0.146-1.562
							c-0.052-0.55,0.353-1.038,0.902-1.09c0.551-0.056,1.037,0.354,1.089,0.902l0.146,1.562c0.226,2.409-1.468,4.586-3.858,4.958
							l-6.693,1.042C238.212,363.401,238.161,363.405,238.109,363.405z"/>
					</g>
				</g>
			</g>
		</g>
	</g>
	<g>
		<g>
			<g>
				<g>
					<path style="fill:#E59515;" d="M384.765,136.141c-8.411,19.879-31.344,29.175-51.223,20.764
						c-5.933-2.51-10.923-6.314-14.781-10.944l-14.019,2.145l7.439-13.46c-3.397-9.047-3.466-19.362,0.597-28.964
						c8.411-19.879,31.344-29.175,51.223-20.764C383.88,93.329,393.176,116.263,384.765,136.141z"/>
					<path style="fill:#FFFFFF;" d="M367.632,107.61h-37.178c-0.552,0-1-0.448-1-1c0-0.552,0.448-1,1-1h37.178c0.552,0,1,0.448,1,1
						C368.632,107.162,368.185,107.61,367.632,107.61z"/>
					<path style="fill:#FFFFFF;" d="M367.632,120.103h-37.178c-0.552,0-1-0.448-1-1c0-0.552,0.448-1,1-1h37.178c0.552,0,1,0.448,1,1
						C368.632,119.655,368.185,120.103,367.632,120.103z"/>
					<path style="fill:#FFFFFF;" d="M367.632,133.639h-37.178c-0.552,0-1-0.448-1-1c0-0.552,0.448-1,1-1h37.178c0.552,0,1,0.448,1,1
						C368.632,133.191,368.185,133.639,367.632,133.639z"/>
				</g>
				<g>
					<g>
						<path style="fill:#3F4EBC;" d="M392.008,166.177h-24.905c-6.276,0-11.411-5.135-11.411-11.411v-0.098
							c0-6.276,5.135-11.411,11.411-11.411h24.905c6.276,0,11.411,5.135,11.411,11.411v0.098
							C403.419,161.043,398.284,166.177,392.008,166.177z"/>
						<path style="fill:#FFFFFF;" d="M366.837,158.139c-1.565,0-2.837-1.273-2.837-2.837c0-1.564,1.272-2.837,2.837-2.837
							c1.564,0,2.837,1.273,2.837,2.837C369.674,156.866,368.402,158.139,366.837,158.139z M366.837,153.465
							c-1.013,0-1.837,0.824-1.837,1.837c0,1.013,0.824,1.837,1.837,1.837c1.013,0,1.837-0.824,1.837-1.837
							C368.674,154.289,367.85,153.465,366.837,153.465z"/>
						<path style="fill:#FFFFFF;" d="M379.556,158.139c-1.565,0-2.837-1.273-2.837-2.837c0-1.564,1.272-2.837,2.837-2.837
							c1.564,0,2.837,1.273,2.837,2.837C382.393,156.866,381.12,158.139,379.556,158.139z M379.556,153.465
							c-1.013,0-1.837,0.824-1.837,1.837c0,1.013,0.824,1.837,1.837,1.837s1.837-0.824,1.837-1.837
							C381.393,154.289,380.568,153.465,379.556,153.465z"/>
						<path style="fill:#FFFFFF;" d="M392.228,158.139c-1.564,0-2.837-1.273-2.837-2.837c0-1.564,1.272-2.837,2.837-2.837
							c1.565,0,2.837,1.273,2.837,2.837C395.065,156.866,393.793,158.139,392.228,158.139z M392.228,153.465
							c-1.013,0-1.837,0.824-1.837,1.837c0,1.013,0.824,1.837,1.837,1.837s1.837-0.824,1.837-1.837
							C394.065,154.289,393.241,153.465,392.228,153.465z"/>
					</g>
				</g>
			</g>
			<g>
				<g>
					<path style="fill:#3F4EBC;" d="M659.907,198.201H544.899c-0.89,0-1.612-0.722-1.612-1.612v-34.75
						c0-0.89,0.722-1.612,1.612-1.612h115.008c0.89,0,1.612,0.722,1.612,1.612v34.75
						C661.519,197.48,660.797,198.201,659.907,198.201z"/>
					<g>
						
							<ellipse transform="matrix(0.7071 -0.7071 0.7071 0.7071 38.7329 450.4984)" style="fill:#FFFFFF;" cx="563.166" cy="178.494" rx="8.596" ry="8.596"/>
					</g>
					<path style="fill:#FF9D0E;" d="M562.428,182.743c-0.01,0-0.019,0-0.029,0c-0.276-0.008-0.537-0.13-0.72-0.337l-3.794-4.292
						c-0.366-0.414-0.327-1.045,0.087-1.411c0.414-0.366,1.046-0.327,1.411,0.087l3.088,3.493l7.642-7.688
						c0.39-0.391,1.022-0.393,1.414-0.004c0.392,0.389,0.393,1.022,0.004,1.414l-8.394,8.444
						C562.949,182.637,562.693,182.743,562.428,182.743z"/>
					<path style="fill:#FFFFFF;" d="M645.116,173.445h-60.495c-0.276,0-0.5-0.224-0.5-0.5c0-0.276,0.224-0.5,0.5-0.5h60.495
						c0.276,0,0.5,0.224,0.5,0.5C645.616,173.221,645.393,173.445,645.116,173.445z"/>
					<path style="fill:#FFFFFF;" d="M611.652,180.621h-27.031c-0.276,0-0.5-0.224-0.5-0.5c0-0.276,0.224-0.5,0.5-0.5h27.031
						c0.276,0,0.5,0.224,0.5,0.5C612.152,180.398,611.929,180.621,611.652,180.621z"/>
					<path style="fill:#FFFFFF;" d="M611.652,188.784h-27.031c-0.276,0-0.5-0.224-0.5-0.5c0-0.276,0.224-0.5,0.5-0.5h27.031
						c0.276,0,0.5,0.224,0.5,0.5C612.152,188.561,611.929,188.784,611.652,188.784z"/>
					<path style="fill:#FFFFFF;" d="M645.116,180.621h-27.03c-0.276,0-0.5-0.224-0.5-0.5c0-0.276,0.224-0.5,0.5-0.5h27.03
						c0.276,0,0.5,0.224,0.5,0.5C645.616,180.398,645.393,180.621,645.116,180.621z"/>
				</g>
				<g>
					<path style="fill:#FFFFFF;" d="M629.267,231.598H514.258c-0.89,0-1.612-0.722-1.612-1.612v-34.75
						c0-0.89,0.722-1.612,1.612-1.612h115.008c0.89,0,1.612,0.722,1.612,1.612v34.75
						C630.879,230.876,630.157,231.598,629.267,231.598z"/>
					<g>
						<circle style="fill:#FFAB31;" cx="532.526" cy="211.891" r="8.596"/>
					</g>
					<path style="opacity:0.69;fill:#E59515;" d="M614.477,206.841h-60.495c-0.276,0-0.5-0.224-0.5-0.5c0-0.276,0.224-0.5,0.5-0.5
						h60.495c0.276,0,0.5,0.224,0.5,0.5C614.977,206.618,614.753,206.841,614.477,206.841z"/>
					<path style="opacity:0.69;fill:#E59515;" d="M581.012,214.018h-27.03c-0.276,0-0.5-0.224-0.5-0.5c0-0.276,0.224-0.5,0.5-0.5
						h27.03c0.276,0,0.5,0.224,0.5,0.5C581.512,213.794,581.288,214.018,581.012,214.018z"/>
					<path style="opacity:0.69;fill:#E59515;" d="M581.012,222.18h-27.03c-0.276,0-0.5-0.224-0.5-0.5c0-0.276,0.224-0.5,0.5-0.5
						h27.03c0.276,0,0.5,0.224,0.5,0.5C581.512,221.956,581.288,222.18,581.012,222.18z"/>
					<path style="opacity:0.69;fill:#E59515;" d="M614.477,214.018h-27.031c-0.276,0-0.5-0.224-0.5-0.5c0-0.276,0.224-0.5,0.5-0.5
						h27.031c0.276,0,0.5,0.224,0.5,0.5C614.977,213.794,614.753,214.018,614.477,214.018z"/>
				</g>
			</g>
			<g>
				<g>
					<path style="fill:#3F4EBC;" d="M518.467,102.105c0,25.409-46.007,66.844-46.007,66.844s-46.007-41.435-46.007-66.844
						s20.598-46.007,46.007-46.007C497.869,56.098,518.467,76.696,518.467,102.105z"/>
					<path style="opacity:0.24;fill:#2E3B62;" d="M472.459,149.701c0,0-37.102-33.419-44.665-58.636
						c-0.872,3.538-1.343,7.233-1.343,11.04c0,25.409,46.007,66.844,46.007,66.844s46.007-41.435,46.007-66.844
						c0-3.807-0.471-7.502-1.343-11.04C509.561,116.283,472.459,149.701,472.459,149.701z"/>
					<path style="fill:#FFFFFF;" d="M472.459,131.364c-15.895,0-28.825-12.931-28.825-28.825c0-15.895,12.931-28.826,28.825-28.826
						c15.894,0,28.826,12.931,28.826,28.826C501.285,118.433,488.353,131.364,472.459,131.364z M472.459,75.713
						c-14.791,0-26.825,12.034-26.825,26.826s12.034,26.825,26.825,26.825c14.792,0,26.826-12.034,26.826-26.825
						S487.251,75.713,472.459,75.713z"/>
				</g>
			</g>
		</g>
		<g>
			<circle style="fill:#9DA8E4;" cx="415.005" cy="135.938" r="2.214"/>
			<circle style="fill:#9DA8E4;" cx="518.467" cy="250" r="2.214"/>
			<circle style="fill:#9DA8E4;" cx="673.087" cy="224.124" r="2.214"/>
			<circle style="fill:#9DA8E4;" cx="108.073" cy="63.38" r="2.214"/>
			<circle style="fill:#9DA8E4;" cx="299.703" cy="65.738" r="2.214"/>
			<circle style="fill:#9DA8E4;" cx="75.034" cy="182.516" r="1.107"/>
			<circle style="fill:#9DA8E4;" cx="593.514" cy="110.948" r="2.214"/>
			<path style="fill:#3F4EBC;" d="M500.294,178.066c0,0.611-0.496,1.107-1.107,1.107c-0.611,0-1.107-0.495-1.107-1.107
				s0.495-1.107,1.107-1.107C499.798,176.96,500.294,177.455,500.294,178.066z"/>
			<circle style="fill:#3F4EBC;" cx="104.753" cy="139.331" r="1.107"/>
			<circle style="fill:#FFFFFF;" cx="550.621" cy="142.417" r="3.086"/>
			<path style="fill:#FFFFFF;" d="M646.472,243.123c0,0.965-0.782,1.748-1.748,1.748c-0.965,0-1.747-0.782-1.747-1.748
				c0-0.965,0.782-1.748,1.747-1.748C645.69,241.375,646.472,242.157,646.472,243.123z"/>
			<path style="fill:#FFFFFF;" d="M113.373,149.114c0,0.852-0.691,1.543-1.543,1.543c-0.852,0-1.543-0.691-1.543-1.543
				c0-0.852,0.691-1.543,1.543-1.543C112.682,147.571,113.373,148.262,113.373,149.114z"/>
			<circle style="fill:#FFFFFF;" cx="325.775" cy="189.237" r="1.543"/>
			<circle style="fill:#FFFFFF;" cx="408.779" cy="110.948" r="1.107"/>
			<circle style="fill:#FFFFFF;" cx="77.748" cy="374.488" r="1.107"/>
			<polygon style="fill:#E59515;" points="560.175,81.128 555.005,88.037 554.798,79.249 548.641,74.002 556.958,72.844 
				562.327,65.738 562.651,74.764 568.567,80.722 			"/>
			<polygon style="fill:#E59515;" points="51.903,166.648 50.106,160.908 55.158,164.375 60.635,163.034 57.898,168.208 
				59.726,174.141 54.491,170.644 48.709,171.559 			"/>
			<polygon style="opacity:0.47;fill:#D2D5F9;" points="367.863,58.868 364.486,63.38 364.351,57.64 360.33,54.213 365.762,53.457 
				369.269,48.815 369.481,54.711 373.345,58.603 			"/>
			<polygon style="opacity:0.47;fill:#D2D5F9;" points="640.081,133.254 637.779,136.331 637.686,132.417 634.944,130.08 
				638.649,129.564 641.04,126.399 641.185,130.419 643.82,133.073 			"/>
			<polygon style="opacity:0.47;fill:#D2D5F9;" points="77.513,104.738 78.395,110.305 74.185,106.401 68.925,106.897 
				72.168,102.474 71.283,96.725 75.659,100.681 81.143,100.622 			"/>
			<polygon style="fill:#FFFFFF;" points="433.147,172.561 430.521,176.07 430.416,171.606 427.289,168.941 431.513,168.352 
				434.24,164.742 434.405,169.327 437.411,172.354 			"/>
			<polygon style="fill:#FFFFFF;" points="615.274,278.315 612.647,281.824 612.542,277.36 609.415,274.694 613.64,274.106 
				616.367,270.496 616.532,275.082 619.537,278.108 			"/>
			<polygon style="fill:#FFFFFF;" points="315.197,222.087 314.027,226.312 312.306,222.191 308.423,220.846 312.144,218.762 
				313.372,214.407 315.193,218.618 319.094,220.344 			"/>
			<circle style="fill:#9DA8E4;" cx="424.333" cy="38.074" r="1.107"/>
			<circle style="fill:#9DA8E4;" cx="501.401" cy="49.433" r="2.214"/>
		</g>
	</g>
</g>
</svg>
